<svg xmlns="http://www.w3.org/2000/svg" width="512" height="512" viewBox="47 48 420 420" class="prefix__fl-svgdocument" overflow="hidden"><path d="M159.666 216.5c13.057 6.37 24.522 15.924 32.802 28.025 21.018 30.89 42.036 68.15 63.373 107.639 21.018-39.807 42.036-76.749 63.373-107.639 8.28-12.101 19.426-21.655 32.801-28.024 28.025-13.376 47.132-29.936 52.864-50.954l-75.156 33.12c-28.343 12.738-21.973 11.783-37.26 32.483l-19.425 31.527c-3.822-9.872-14.013-28.343 2.547-32.483-4.14-4.14-21.337-6.687-26.432-1.274-4.777 4.777-4.458 23.885-10.509 34.076l-19.426-31.846c-14.968-20.7-8.598-19.745-37.26-32.483l-74.837-33.12c5.413 21.018 24.84 37.578 52.545 50.954zm-45.22-14.33c1.591 25.795 30.253 40.763 64.646 45.54-9.235-18.471-32.164-17.834-64.647-45.54zm73.563 59.552c-15.923-1.593-34.075-6.051-51.59-15.923 10.509 23.566 47.769 33.756 51.59 15.923zM173.36 282.74c16.241 15.923 33.438 8.917 21.655-5.732-5.414 5.732-12.101 6.05-21.655 5.732zm55.412 127.702l11.464-58.278-29.935 46.495 18.47 11.783zm16.878 5.095h20.381l-10.19-50.635-10.19 50.635zm86.94-167.827c34.393-4.459 63.054-19.745 64.646-45.54-32.164 27.706-55.411 27.069-64.647 45.54zm42.673-1.911c-17.515 9.872-35.35 14.33-51.59 15.923 3.821 17.833 41.4 7.643 51.59-15.923zm-58.597 31.209c-11.783 14.649 5.414 21.655 21.656 5.732-9.554.318-16.242 0-21.656-5.732zM282.91 410.442l18.47-11.465-29.935-46.495 11.465 57.96z" fill="#e3ba67"/><path fill="#e3ba67" stroke="#42b574" d="M144.053 156.85h0q-.652-.891-1.099-1.718-.444-.83-.872-1.86h0l3.25-2.377.982 1.342q.817 1.116 1.584 1.873.763.759 1.51 1.118.746.36 1.493.276.745-.087 1.504-.642h0q1.2-.877 1.349-1.994.155-1.115-.768-2.378h0q-.475-.65-.96-1.124-.486-.478-1.095-.851-.609-.374-1.411-.692-.806-.316-1.92-.621h0l-8.17-2q-2.25-.637-3.989-1.685-1.737-1.053-2.99-2.767h0q-1.005-1.375-1.419-2.837-.41-1.465-.21-2.888.198-1.426 1.05-2.757.854-1.33 2.358-2.43h0q1.829-1.338 3.426-1.713 1.601-.377 2.946-.069 1.34.311 2.406 1.134 1.061.826 1.83 1.876h0q.651.892 1.062 1.746.415.851.9 1.89h0l-3.234 2.365-.96-1.312q-1.61-2.2-3.1-2.91-1.487-.713-2.912.33h0q-1.18.862-1.283 1.944-.103 1.083.701 2.183h0q.424.58.858.985.433.405.89.676.46.274.977.466.513.194 1.117.373h0l9.177 2.331q2.593.758 4.471 1.83 1.875 1.076 3.176 2.855h0q1.079 1.475 1.48 2.991.405 1.52.15 2.973-.25 1.45-1.142 2.784-.888 1.33-2.41 2.443h0q-1.875 1.371-3.48 1.777-1.604.4-2.946.116-1.34-.287-2.406-1.12-1.066-.832-1.87-1.932zm24.52-8.598l-15.599-25.8-4.714 2.851-2.115-3.499 13.858-8.379 2.116 3.5-4.7 2.841 15.598 25.8-4.444 2.686zm11.045-6.655l-8.981-33.635 5.396-2.562 20.406 28.21-4.743 2.253-3.483-5.136-5.648 2.682 1.815 5.928-4.762 2.26zm1.812-11.975l4.565-2.168-9.49-14.38-.2.095 5.125 16.453zm19.266 2.357l-10.74-32.508 5.348-1.767q.912-.301 2.033-.585 1.12-.288 2.313-.354 1.19-.064 2.405.187 1.212.253 2.34 1.022 1.13.767 2.118 2.162.989 1.394 1.717 3.6h0l.27.819q1.227 3.71.933 6.393-.298 2.684-2.032 4.398h0l9.51 11.276-5.215 1.723-8.337-10.734-1.848.61 4.018 12.162-4.833 1.596zm-.36-17.317l.744-.246q1.294-.427 2.093-1.007.801-.584 1.128-1.44.33-.857.208-2.053-.119-1.198-.66-2.835h0l-.848-2.568q-.415-1.256-.946-2.092-.529-.841-1.27-1.25-.737-.413-1.723-.402-.99.011-2.34.457h0l-.744.246 4.358 13.19zm21.632 10.811l-6.092-33.69 5.11-.924 2.661 14.716.158-.028 3.176-15.772 5.09-.92-3.655 16.976 10.474 16.583-5.462.987-9.092-14.917-.158.028 2.9 16.037-5.11.924zm41.14-3.394l2.595-34.139 5.178.394-2.595 34.138-5.178-.393zm12.251 1.025l6.77-33.561 4.124.832 3.607 24.1.116.023q.098-.797.196-1.778.098-.985.265-2.229.171-1.243.424-2.808.252-1.562.645-3.51h0l2.47-12.24 4.559.92-6.77 33.56-4.165-.84-3.685-23.504-.157-.032q-.118.898-.23 1.951-.107 1.05-.312 2.462-.2 1.41-.52 3.28-.313 1.867-.829 4.422h0l-1.989 9.863-4.519-.911zm26.666 6.58l5.591-34.344 5.007 1.776-5.515 26.822.205.073 12.637-24.296 4.988 1.769-17.318 30.184-5.595-1.984zm15.576 6.044l14.945-30.803 11.416 5.54-1.784 3.678-6.744-3.272-4.471 9.215 5.211 2.528-1.785 3.679-5.211-2.529-5.12 10.552 6.925 3.36-1.784 3.679-11.598-5.627zm18.437 1.482h0q.578-.941 1.174-1.67.599-.725 1.39-1.511h0l3.432 2.105-.87 1.418q-.722 1.179-1.131 2.175-.413.995-.462 1.821-.05.827.311 1.487.363.656 1.165 1.148h0q1.266.777 2.356.492 1.091-.28 1.91-1.613h0q.42-.686.675-1.314.258-.632.372-1.337.115-.705.105-1.568-.013-.866-.154-2.011h0l-1.25-8.318q-.264-2.325.046-4.33.316-2.007 1.426-3.817h0q.89-1.452 2.087-2.39 1.2-.934 2.592-1.289 1.395-.358 2.95-.074 1.554.284 3.143 1.259h0q1.931 1.184 2.884 2.52.957 1.338 1.181 2.7.222 1.358-.136 2.656-.361 1.295-1.042 2.404h0q-.577.942-1.211 1.646-.631.706-1.408 1.549h0l-3.415-2.095.85-1.386q1.425-2.323 1.516-3.972.095-1.646-1.41-2.57h0q-1.245-.763-2.286-.448t-1.754 1.477h0q-.375.612-.585 1.167-.21.555-.288 1.08-.079.53-.06 1.08.015.55.078 1.176h0l1.325 9.375q.282 2.687.002 4.832-.283 2.142-1.436 4.021h0q-.955 1.557-2.206 2.505-1.252.95-2.693 1.266-1.437.318-3.01-.001-1.567-.317-3.174-1.302h0q-1.98-1.215-2.965-2.546-.979-1.333-1.225-2.683-.242-1.347.123-2.65.366-1.302 1.078-2.464zm17.225 19.473l17.968-24.209-4.424-3.283 2.437-3.283 13.004 9.651-2.437 3.283-4.41-3.273-17.968 24.209-4.17-3.095z" stroke-width=".41051"/><path d="M256 464c114.88 0 208-93.124 208-208S370.88 48 256 48 48 141.124 48 256s93.12 208 208 208zm0-411.378c112.144 0 203.378 91.234 203.378 203.378S368.144 459.378 256 459.378 52.622 368.144 52.622 256 143.856 52.622 256 52.622z" fill="#e3ba67"/></svg>